<?xml version="1.0" encoding="UTF-8" standalone="no"?>
<svg
   version="1.0"
   width="16.000000pt"
   height="16.000000pt"
   viewBox="0 0 16.000000 16.000000"
   preserveAspectRatio="xMidYMid meet"
   id="svg1"
   sodipodi:docname="gcode.svg"
   inkscape:version="1.3.2 (091e20e, 2023-11-25, custom)"
   xmlns:inkscape="http://www.inkscape.org/namespaces/inkscape"
   xmlns:sodipodi="http://sodipodi.sourceforge.net/DTD/sodipodi-0.dtd"
   xmlns="http://www.w3.org/2000/svg"
   xmlns:svg="http://www.w3.org/2000/svg">
  <defs
     id="defs1" />
  <sodipodi:namedview
     id="namedview1"
     pagecolor="#ffffff"
     bordercolor="#000000"
     borderopacity="0.25"
     inkscape:showpageshadow="2"
     inkscape:pageopacity="0.0"
     inkscape:pagecheckerboard="0"
     inkscape:deskcolor="#d1d1d1"
     inkscape:document-units="pt"
     inkscape:zoom="5.6568543"
     inkscape:cx="-37.211494"
     inkscape:cy="10.518213"
     inkscape:window-width="1920"
     inkscape:window-height="1129"
     inkscape:window-x="1912"
     inkscape:window-y="-8"
     inkscape:window-maximized="1"
     inkscape:current-layer="svg1" />
  <g
     transform="translate(0.000000,16.000000) scale(0.100000,-0.100000)"
     fill="#000000"
     stroke="none"
     id="g1"
     style="fill:#000000;fill-opacity:0.10743801" />
  <path
     id="text3-1"
     style="font-size:20.614px;font-family:Stencil;-inkscape-font-specification:Stencil;stroke:#ffffff;stroke-width:0.45809;stroke-opacity:0"
     d="m 7.7346045,0.99826 c -0.3556448,0 -0.6645648,0.0334737 -0.9262657,0.1005766 C 6.1775725,1.2598833 5.5875274,1.5253769 5.0372845,1.8944423 4.0844247,2.5252086 3.3531024,3.3932301 2.8431211,4.5004263 2.3331399,5.6076225 2.0783801,6.8765337 2.0783801,8.3058234 c 0,1.4762614 0.2844209,2.7535636 0.8547946,3.8339186 0.3690653,0.69116 0.8390367,1.285296 1.4094105,1.781857 0.5703737,0.49656 1.2079877,0.866273 1.9125671,1.107843 0.2952524,0.100654 0.5302383,0.167604 0.7047053,0.201153 0.1811775,0.03355 0.3784813,0.04954 0.5932102,0.04954 h 0.856224 c 0.335514,0 0.7216639,-0.04337 1.1578322,-0.130599 0.442878,-0.08723 0.845507,-0.201345 1.207862,-0.342261 0.395906,-0.161047 0.815013,-0.379376 1.257892,-0.654498 0.449588,-0.281832 0.807943,-0.555717 1.076355,-0.824128 V 9.8955337 c 0,-0.214729 0.01648,-0.3623142 0.05003,-0.4428371 0.03355,-0.080523 0.118803,-0.167255 0.253008,-0.2611989 0.134205,-0.093944 0.22462,-0.1821771 0.27159,-0.2627 0.05368,-0.087234 0.08005,-0.1937493 0.08005,-0.3212446 0,-0.2080187 -0.06405,-0.3518062 -0.191543,-0.4323291 C 13.451581,8.0879905 13.241094,8.0431234 12.939131,8.0431234 H 9.2540805 8.9224545 c -0.2952524,0 -0.520351,0.047163 -0.6746874,0.1411074 -0.1476263,0.093944 -0.2215604,0.227839 -0.2215604,0.4023063 0,0.2952523 0.1610513,0.4839063 0.4831447,0.5644297 0.261701,0.060392 1.4483041,0.068413 1.5466616,0.1200915 0.09836,0.051679 0.08995,0.058314 0.141513,0.1215925 0.09628,0.118164 0.150089,0.3012277 0.150089,0.5629286 v 2.9392376 c 0,0.322093 -0.05603,0.587587 -0.170101,0.795606 -0.0671,0.120785 -0.150924,0.215112 -0.2515786,0.282215 -0.093944,0.0671 -0.2334427,0.17113 -0.433115,0.17113 H 7.5530678 c -0.3020406,0 -1.2041659,-0.219493 -1.6609888,-0.604961 C 5.5032335,13.210698 5.1126856,12.56212 5.1087556,12.199788 L 5.018702,4.0050491 c -0.00997,-0.9185549 1.2796969,-1.5487154 2.1660522,-1.8389883 0.846941,-0.2773652 1.8240912,-0.1191499 2.65396,0.2102482 0.3620898,0.1437237 0.6511448,0.4000461 0.9262658,0.73556 0.241571,0.2885421 0.493034,0.684133 0.754735,1.187404 0.261701,0.4965607 0.442526,0.9332209 0.54318,1.3089966 0.08052,0.2952523 0.164345,0.4922972 0.251579,0.5929514 0.09394,0.1006544 0.235221,0.1516155 0.423109,0.1516155 0.375775,0 0.563192,-0.2556016 0.563192,-0.7655829 V 1.6722731 c 0,-0.24157 -0.03955,-0.4127366 -0.120071,-0.5133908 C 13.106891,1.0515178 12.9755,0.99826 12.787613,0.99826 c -0.181178,0 -0.332342,0.0829339 -0.453127,0.2506909 -0.174467,0.23486 -0.291248,0.3801483 -0.351638,0.4338302 -0.05368,0.046972 -0.134208,0.070554 -0.241573,0.070554 -0.114074,0 -0.275126,-0.047164 -0.483144,-0.1411075 C 10.553551,1.3102648 9.6531566,1.1079211 8.5593812,1.0072669 Z"
     transform="scale(1.0247802,0.97581902)"
     sodipodi:nodetypes="cccsscsccssccccssscscscscsccsssccssaccaaccccssscsccsccc" />
</svg>
