<?xml version="1.0" standalone="no"?>
<!DOCTYPE svg PUBLIC "-//W3C//DTD SVG 20010904//EN"
 "http://www.w3.org/TR/2001/REC-SVG-20010904/DTD/svg10.dtd">
<svg version="1.0" xmlns="http://www.w3.org/2000/svg"
 width="16.000000pt" height="16.000000pt" viewBox="0 0 16.000000 16.000000"
 preserveAspectRatio="xMidYMid meet">

<g transform="translate(0.000000,16.000000) scale(0.100000,-0.100000)"
fill="#000000" stroke="none">
<path d="M124 139 c-11 -12 -29 -25 -42 -30 -15 -6 -22 -16 -20 -26 5 -24 37
-29 44 -6 4 10 18 30 31 44 14 15 20 29 15 33 -5 3 -18 -4 -28 -15z"/>
<path d="M39 129 c-16 -16 -20 -29 -16 -55 4 -22 1 -37 -9 -45 -7 -6 -11 -16
-8 -21 4 -5 13 -3 22 5 11 9 29 13 49 10 23 -4 37 1 52 16 22 22 29 61 11 61
-5 0 -10 -6 -10 -13 0 -20 -37 -50 -54 -44 -8 3 -20 15 -26 27 -9 17 -7 24 15
44 14 13 25 26 25 30 0 14 -31 5 -51 -15z"/>
</g>
</svg>
