<?xml version="1.0" encoding="UTF-8" standalone="no"?>
<svg
   version="1.0"
   width="16.000000pt"
   height="16.000000pt"
   viewBox="0 0 16.000000 16.000000"
   preserveAspectRatio="xMidYMid meet"
   id="svg1"
   sodipodi:docname="mirrorgcode.svg"
   inkscape:version="1.3.2 (091e20e, 2023-11-25, custom)"
   xmlns:inkscape="http://www.inkscape.org/namespaces/inkscape"
   xmlns:sodipodi="http://sodipodi.sourceforge.net/DTD/sodipodi-0.dtd"
   xmlns="http://www.w3.org/2000/svg"
   xmlns:svg="http://www.w3.org/2000/svg">
  <defs
     id="defs1" />
  <sodipodi:namedview
     id="namedview1"
     pagecolor="#ffffff"
     bordercolor="#000000"
     borderopacity="0.25"
     inkscape:showpageshadow="2"
     inkscape:pageopacity="0.0"
     inkscape:pagecheckerboard="0"
     inkscape:deskcolor="#d1d1d1"
     inkscape:document-units="pt"
     inkscape:zoom="5.6568543"
     inkscape:cx="-37.034717"
     inkscape:cy="10.518213"
     inkscape:window-width="1920"
     inkscape:window-height="1129"
     inkscape:window-x="1912"
     inkscape:window-y="-8"
     inkscape:window-maximized="1"
     inkscape:current-layer="svg1" />
  <g
     transform="translate(0.000000,16.000000) scale(0.100000,-0.100000)"
     fill="#000000"
     stroke="none"
     id="g1"
     style="fill:#000000;fill-opacity:0.10743801" />
  <path
     id="text3-1"
     style="font-size:20.614px;font-family:Stencil;-inkscape-font-specification:Stencil;stroke:#ffffff;stroke-width:0.45809;stroke-opacity:0"
     d="m 8.3085967,0.97412109 c 0.3644577,0 0.6810328,0.0326643 0.9492187,0.0981446 0.6463969,0.1571524 1.2510636,0.4162261 1.8149416,0.7763671 0.976472,0.6155138 1.725916,1.4625457 2.248535,2.5429688 0.522619,1.0804231 0.783691,2.3186508 0.783691,3.7133789 0,1.4405639 -0.291468,2.6869795 -0.875976,3.7412105 -0.378211,0.674447 -0.859828,1.254216 -1.444336,1.73877 -0.584508,0.484553 -1.237922,0.845326 -1.959961,1.081054 -0.3025688,0.09822 -0.5433777,0.163552 -0.722168,0.196289 -0.1856671,0.03274 -0.3878602,0.04834 -0.6079101,0.04834 H 7.6171905 c -0.3438281,0 -0.7395469,-0.04232 -1.1865235,-0.127441 C 5.9768144,14.698085 5.5642082,14.586729 5.1928739,14.449221 4.7871573,14.292068 4.3576647,14.079018 3.9038111,13.810549 3.4430822,13.535532 3.0758471,13.26827 2.8007838,13.006349 V 9.65625 c 0,-0.2095366 -0.016888,-0.3535531 -0.05127,-0.4321289 C 2.7151327,9.1455453 2.6277671,9.0609105 2.4902365,8.9692383 2.3527059,8.8775659 2.2600504,8.7914664 2.2119164,8.7128906 2.1569062,8.627766 2.1298828,8.5238264 2.1298828,8.399414 c 0,-0.2029886 0.065637,-0.3432992 0.1962894,-0.4218749 C 2.4499524,7.892415 2.6656553,7.8486328 2.975101,7.8486328 h 3.7763668 0.3398437 c 0.3025688,0 0.5332454,0.046023 0.6914063,0.1376953 0.1512845,0.091672 0.2270507,0.2223296 0.2270507,0.3925781 0,0.2881128 -0.1650421,0.472205 -0.4951171,0.5507813 C 7.2464654,8.9886191 6.030458,8.9964462 5.9296632,9.046875 5.8288658,9.0973044 5.8374842,9.1037789 5.7846435,9.1655273 5.6859777,9.280834 5.6308353,9.459471 5.6308353,9.7148437 v 2.8681643 c 0,0.314304 0.057418,0.573378 0.1743161,0.776367 0.068763,0.117864 0.1546639,0.209911 0.2578128,0.275391 0.096272,0.06548 0.2392274,0.166992 0.4438477,0.166992 h 1.98782 c 0.3095252,0 1.2340054,-0.214186 1.7021481,-0.590333 0.398482,-0.320175 0.798707,-0.953069 0.802735,-1.30664 L 11.0918,3.9082031 C 11.102017,3.0118597 9.7803918,2.3969371 8.8720724,2.1136833 8.004144,1.8430251 7.0027799,1.9974146 6.1523467,2.3188475 5.7812843,2.4590958 5.4850664,2.7092201 5.2031279,3.036621 4.9555707,3.3181858 4.6978764,3.704211 4.4296904,4.1953124 4.1615044,4.6798657 3.9761985,5.1059671 3.8730503,5.4726561 3.790535,5.760769 3.7046328,5.9530491 3.6152371,6.0512694 3.5189693,6.1494899 3.3741873,6.1992187 3.1816434,6.1992187 c -0.3850868,0 -0.577148,-0.2494209 -0.577148,-0.7470704 V 1.6318359 c 0,-0.2357286 0.04053,-0.4027562 0.1230464,-0.5009765 0.075642,-0.1047683 0.210289,-0.15673831 0.4028318,-0.15673831 0.1856677,0 0.3405775,0.0809285 0.4643556,0.24462891 0.1787903,0.2291809 0.2984652,0.370956 0.3603517,0.4233398 0.05501,0.045836 0.1375337,0.068848 0.2475592,0.068848 0.1169008,0 0.2819437,-0.046023 0.4951164,-0.1376953 0.7220396,-0.2946611 1.644746,-0.4921119 2.7656254,-0.5903322 z"
     sodipodi:nodetypes="cccsscsccssccccssscscscscsccsssccssaccaaccccssscsccsccc" />
</svg>
