<?xml version="1.0" encoding="UTF-8" standalone="no"?>
<svg
   version="1.0"
   width="16.000000pt"
   height="16.000000pt"
   viewBox="0 0 16.000000 16.000000"
   preserveAspectRatio="xMidYMid meet"
   id="svg1"
   sodipodi:docname="path.svg"
   inkscape:version="1.3.2 (091e20e, 2023-11-25, custom)"
   xmlns:inkscape="http://www.inkscape.org/namespaces/inkscape"
   xmlns:sodipodi="http://sodipodi.sourceforge.net/DTD/sodipodi-0.dtd"
   xmlns="http://www.w3.org/2000/svg"
   xmlns:svg="http://www.w3.org/2000/svg">
  <defs
     id="defs1" />
  <sodipodi:namedview
     id="namedview1"
     pagecolor="#ffffff"
     bordercolor="#000000"
     borderopacity="0.25"
     inkscape:showpageshadow="2"
     inkscape:pageopacity="0.0"
     inkscape:pagecheckerboard="0"
     inkscape:deskcolor="#d1d1d1"
     inkscape:document-units="pt"
     inkscape:zoom="41.765625"
     inkscape:cx="10.666667"
     inkscape:cy="10.666667"
     inkscape:window-width="1920"
     inkscape:window-height="1129"
     inkscape:window-x="1912"
     inkscape:window-y="-8"
     inkscape:window-maximized="1"
     inkscape:current-layer="svg1" />
  <g
     transform="translate(0.000000,16.000000) scale(0.100000,-0.100000)"
     fill="#000000"
     stroke="none"
     id="g1">
    <path
       d="M105 150 c-3 -5 -24 -10 -45 -10 -29 0 -42 -5 -50 -19 -17 -32 12 -51 76 -51 47 0 55 -3 52 -18 -4 -23 -68 -30 -80 -8 -20 36 -57 11 -38 -25 9 -15 15 -18 23 -10 6 6 30 11 54 11 32 0 45 5 53 19 17 32 -12 51 -76 51 -47 0 -55 3 -52 18 5 25 68 29 86 5 13 -17 14 -17 27 0 7 11 11 25 8 33 -6 16 -29 19 -38 4z m28 -26 c-4 -10 -9 -12 -15 -6 -12 12 -1 35 12 27 5 -3 6 -13 3 -21z m-85 -85 c-5 -14 -21 -14 -26 0 -2 6 4 11 13 11 9 0 15 -5 13 -11z"
       id="path1" />
  </g>
</svg>
