<?xml version="1.0" encoding="UTF-8" standalone="no"?>
<svg
   version="1.0"
   width="16.000000pt"
   height="16.000000pt"
   viewBox="0 0 16.000000 16.000000"
   preserveAspectRatio="xMidYMid meet"
   id="svg1"
   sodipodi:docname="projection.svg"
   inkscape:version="1.3.2 (091e20e, 2023-11-25, custom)"
   xmlns:inkscape="http://www.inkscape.org/namespaces/inkscape"
   xmlns:sodipodi="http://sodipodi.sourceforge.net/DTD/sodipodi-0.dtd"
   xmlns="http://www.w3.org/2000/svg"
   xmlns:svg="http://www.w3.org/2000/svg">
  <defs
     id="defs1">
    <inkscape:path-effect
       effect="bspline"
       id="path-effect7"
       is_visible="true"
       lpeversion="1.3"
       weight="33.333333"
       steps="2"
       helper_size="0"
       apply_no_weight="true"
       apply_with_weight="true"
       only_selected="false"
       uniform="false" />
    <inkscape:path-effect
       effect="spiro"
       id="path-effect3"
       is_visible="true"
       lpeversion="1" />
    <inkscape:path-effect
       effect="bspline"
       id="path-effect7-7"
       is_visible="true"
       lpeversion="1.3"
       weight="33.333333"
       steps="2"
       helper_size="0"
       apply_no_weight="true"
       apply_with_weight="true"
       only_selected="false"
       uniform="false" />
  </defs>
  <sodipodi:namedview
     id="namedview1"
     pagecolor="#ffffff"
     bordercolor="#000000"
     borderopacity="0.25"
     inkscape:showpageshadow="2"
     inkscape:pageopacity="0.0"
     inkscape:pagecheckerboard="0"
     inkscape:deskcolor="#d1d1d1"
     inkscape:document-units="pt"
     inkscape:zoom="29.532758"
     inkscape:cx="-1.7099656"
     inkscape:cy="13.696655"
     inkscape:window-width="1920"
     inkscape:window-height="1009"
     inkscape:window-x="1912"
     inkscape:window-y="-8"
     inkscape:window-maximized="1"
     inkscape:current-layer="svg1" />
  <g
     id="g1">
    <path
       d="M 12.5,1.7988252 C 12.3,2.5813379 12,4.2581507 11.8,5.4878134 11.3,8.617864 8.4,8.9532265 7.7,5.9349635 6.9,2.6931254 4.8,3.8110006 3.8,8.0589264 3.3,10.182889 2.3,11.636127 1.4,11.636127 c -0.9,0 -1.4,0.782513 -1.2,1.900388 0.5,2.6829 3.2,2.571113 3.6,-0.223575 0.5,-2.459326 2,-5.0304386 3.2,-5.0304386 0.4,0 1,1.0060877 1.3,2.2357506 C 9.1,13.76009 12,13.424727 12,10.071102 12,8.5060764 12.9,6.6056886 14.1,5.5996009 15.4,4.5935132 16,3.252063 15.7,2.2459753 14.9,0.12201244 13.1,-0.1015626 12.5,1.7988252 Z"
       id="path1"
       style="display:none;fill:#000000;fill-opacity:0.190871;stroke:none;stroke-width:0.10573" />
  </g>
  <path
     style="fill:#000000;fill-opacity:1;stroke:#000000;stroke-width:1.3273;stroke-linejoin:round;stroke-opacity:1"
     id="path2"
     d="M 1.7397109,9.1596147 C 1.9420288,9.1574424 1.944598,9.166661 2.1970238,9.0984015 3.256558,8.8119284 2.2143887,9.0184625 3.5993511,8.6857104 4.6204539,8.4403649 5.0468205,8.4017044 6.1092339,8.240526 7.9690122,8.1051292 9.8325872,8.30388 11.683321,8.8345102 c 0.582399,0.1669881 1.03833,0.3542279 1.606981,0.5734039 0.587748,0.2687737 0.322952,0.1323416 0.795393,0.3937011 0.706624,0.5340998 0.92448,-1.7192366 0.217857,-2.2533369 v 0 C 13.794096,7.7674344 14.07894,7.6596871 13.44796,7.8487734 12.792233,7.9845845 12.441275,8.0724802 11.754557,8.1392367 9.8851478,8.3210194 8.0133015,8.1542023 6.147061,7.8330514 4.7892999,7.5963676 3.4152149,7.4392153 2.0869147,6.547127 1.2676647,5.6959191 0.9204612,8.308407 1.7397109,9.1596147 Z" />
  <path
     style="fill:#000000;fill-opacity:1;stroke:#000000;stroke-width:0.839;stroke-linejoin:round;stroke-opacity:1;stroke-dasharray:none"
     d="m 7.504771,10.202978 c 0.1444755,-0.0212 0.2848552,0.01984 0.4281108,0.01984 0.8668766,0 0.1368138,0.105386 0.1228492,2.055203 -0.00835,1.175334 0.2700731,1.063506 0.6259143,1.051882 0.5245141,-0.01302 0.8378308,-0.09895 0.7007631,0.05922 -0.6539189,0.754552 -0.8981143,1.358231 -1.4516337,1.980937 -0.4698758,-0.720909 -0.823596,-1.375311 -1.3345711,-2.084223 -0.079784,-0.114602 1.1551888,0.05684 1.1709578,0.01153 0.3732557,-0.949354 -0.2161643,-2.563209 -0.2623904,-3.09438 z"
     id="path5-3"
     sodipodi:nodetypes="csscscscc" />
  <path
     style="fill:#000000;fill-opacity:1;stroke:#000000;stroke-width:0.839;stroke-linejoin:round;stroke-opacity:1;stroke-dasharray:none"
     d="m 7.5047713,5.8513152 c 0.1444755,0.0212 0.2848552,-0.01984 0.4281108,-0.01984 0.8668764,0 0.1368134,-0.105386 0.1228494,-2.055203 -0.0084,-1.175334 0.270073,-1.063506 0.625914,-1.051882 0.524514,0.01302 0.837831,0.09895 0.700763,-0.05922 C 8.7284895,1.9106182 8.4842945,1.3069394 7.930775,0.68423342 7.4608992,1.4051422 7.107179,2.0595442 6.5962039,2.7684562 c -0.079784,0.114602 1.1551888,-0.05684 1.1709578,-0.01153 0.3732558,0.949354 -0.2161643,2.563209 -0.2623904,3.09438 z"
     id="path5-3-3"
     sodipodi:nodetypes="csscscscc" />
</svg>
