<?xml version="1.0" encoding="UTF-8" standalone="no"?>
<svg
   version="1.0"
   width="16.000000pt"
   height="16.000000pt"
   viewBox="0 0 16.000000 16.000000"
   preserveAspectRatio="xMidYMid meet"
   id="svg1"
   sodipodi:docname="route.svg"
   inkscape:version="1.3.2 (091e20e, 2023-11-25, custom)"
   xmlns:inkscape="http://www.inkscape.org/namespaces/inkscape"
   xmlns:sodipodi="http://sodipodi.sourceforge.net/DTD/sodipodi-0.dtd"
   xmlns="http://www.w3.org/2000/svg"
   xmlns:svg="http://www.w3.org/2000/svg">
  <defs
     id="defs1" />
  <sodipodi:namedview
     id="namedview1"
     pagecolor="#ffffff"
     bordercolor="#000000"
     borderopacity="0.25"
     inkscape:showpageshadow="2"
     inkscape:pageopacity="0.0"
     inkscape:pagecheckerboard="0"
     inkscape:deskcolor="#d1d1d1"
     inkscape:document-units="pt"
     inkscape:zoom="20.882813"
     inkscape:cx="9.0265619"
     inkscape:cy="19.034792"
     inkscape:window-width="1920"
     inkscape:window-height="1129"
     inkscape:window-x="1912"
     inkscape:window-y="-8"
     inkscape:window-maximized="1"
     inkscape:current-layer="svg1" />
  <g
     transform="matrix(0.1,0,0,-0.11178752,0,17.225503)"
     fill="#000000"
     stroke="none"
     id="g1">
    <path
       d="m 125,138 c -2,-7 -5,-22 -7,-33 C 113,77 84,74 77,101 69,130 48,120 38,82 33,63 23,50 14,50 5,50 0,43 2,33 7,9 34,10 38,35 c 5,22 20,45 32,45 4,0 10,-9 13,-20 8,-29 37,-26 37,4 0,14 9,31 21,40 13,9 19,21 16,30 -8,19 -26,21 -32,4 z"
       id="path1" />
  </g>
</svg>
